<svg width="101" height="25" viewBox="0 0 101 25" fill="none" xmlns="http://www.w3.org/2000/svg">
<mask id="mask0_1747_65531" style="mask-type:luminance" maskUnits="userSpaceOnUse" x="0" y="0" width="113" height="28">
<path d="M112.609 0H0V28H112.609V0Z" fill="white"/>
</mask>
<g mask="url(#mask0_1747_65531)">
<path d="M26.9615 12.581C26.9615 10.8808 25.923 9.25491 24.0133 7.92498C24.0067 8.08194 23.9914 8.24262 23.981 8.40052C23.9705 8.55842 23.9639 8.70973 23.9486 8.87044C23.9325 9.05089 23.9068 9.23419 23.8849 9.41652C23.8649 9.57723 23.8488 9.73696 23.825 9.89866C23.7974 10.08 23.7622 10.2633 23.7299 10.4466C23.7013 10.6111 23.6757 10.7746 23.6424 10.94C23.6053 11.1279 23.5596 11.3103 23.5169 11.4954C23.4798 11.6599 23.4456 11.8235 23.4037 11.9888C23.3552 12.1768 23.2972 12.3733 23.2429 12.565C23.1983 12.7238 23.1574 12.8827 23.1089 13.0415C23.0462 13.2454 22.9757 13.4485 22.9063 13.6524C22.8568 13.7999 22.8112 13.9475 22.7589 14.0951C22.6771 14.3235 22.5858 14.5509 22.4964 14.7783C22.4489 14.8996 22.406 15.0218 22.3556 15.1421C22.213 15.4898 22.0608 15.8366 21.9001 16.1759C21.7394 16.5152 21.5711 16.8507 21.398 17.1815C21.3561 17.2604 21.3152 17.3404 21.2724 17.4184C21.0974 17.7426 20.9187 18.064 20.7303 18.3771L20.6743 18.471C20.5591 18.6589 20.4431 18.847 20.3242 19.0349C24.3585 17.6881 26.9615 15.2163 26.9615 12.581Z" fill="#41B9FF"/>
<path d="M8.46419 5.624C3.38663 6.77155 0 9.53567 0 12.5789C0 14.6945 1.65385 16.7321 4.53644 18.1692C7.00913 19.4022 10.1866 20.0817 13.4761 20.0817C13.8755 20.0817 14.2731 20.0685 14.6668 20.0498C14.7915 20.0432 14.9132 20.0338 15.0368 20.0253C15.3107 20.0075 15.5827 19.9858 15.8528 19.9586C15.9906 19.9445 16.1267 19.9295 16.2627 19.9135C16.528 19.8825 16.7905 19.8449 17.052 19.8045C17.1756 19.7857 17.3002 19.7678 17.4229 19.7462C17.4752 19.7377 17.5256 19.7255 17.578 19.7161L9.74527 7.61274L8.46419 5.624Z" fill="#41B9FF"/>
<path d="M14.987 21.3713L14.7084 21.3863C14.3014 21.406 13.8934 21.4192 13.4825 21.4192C13.0717 21.4192 12.6637 21.407 12.2566 21.3873C12.1245 21.3807 11.9942 21.3694 11.8619 21.3609C11.588 21.3431 11.3151 21.3234 11.0441 21.296C10.891 21.281 10.7387 21.2623 10.5866 21.2444C10.3384 21.2152 10.0931 21.1842 9.84857 21.1504C9.6917 21.1269 9.53671 21.1016 9.38074 21.0761C9.14198 21.0348 8.90522 20.9906 8.66935 20.9427C8.5191 20.9126 8.36883 20.8825 8.22142 20.8487C7.97605 20.7933 7.73639 20.7331 7.49674 20.671C7.36549 20.6363 7.23235 20.6043 7.103 20.5686C6.8177 20.4868 6.53239 20.3985 6.24707 20.3064C6.17385 20.282 6.09681 20.2613 6.02358 20.2359C5.69072 20.1218 5.36515 20.0003 5.04688 19.8713C5.45392 22.2134 6.52381 23.8713 8.11965 24.5959C10.5923 25.7237 14.0074 24.3543 16.9643 21.1786C16.7503 21.2087 16.5353 21.2341 16.3194 21.2584C16.27 21.2642 16.2243 21.2717 16.172 21.2763C15.7831 21.3167 15.3864 21.3477 14.987 21.3713Z" fill="#684BD4"/>
<path d="M19.0524 18.5019C19.1826 18.3054 19.3092 18.1053 19.4328 17.9032C19.5022 17.7904 19.5706 17.6776 19.6382 17.5629C19.765 17.3487 19.888 17.1316 20.0072 16.9117C20.0633 16.8083 20.1213 16.7068 20.1765 16.6024C20.3467 16.2782 20.5122 15.9502 20.6691 15.6156C22.0586 12.6457 22.7614 9.49339 22.6596 6.7406V6.71522L22.6263 6.03383C22.3629 3.2453 21.2226 1.20959 19.447 0.394739C18.8666 0.13347 18.2361 -0.00115854 17.5982 7.51023e-06H17.485C14.9543 0.0488797 12.0432 1.8797 9.61719 4.92669L16.9582 16.2697L18.7186 18.9896C18.7576 18.9342 18.7984 18.8806 18.8374 18.8243C18.9107 18.718 18.981 18.61 19.0524 18.5019Z" fill="#684BD4"/>
<path d="M38.0609 9.03233C39.0614 9.03233 39.9229 9.22224 40.6457 9.60189C41.3597 9.97287 41.9437 10.548 42.3214 11.2523C42.7152 11.9741 42.9121 12.8544 42.9121 13.8933V15.3097H35.9305C35.9629 16.133 36.2129 16.7789 36.6809 17.2476C37.1488 17.7162 37.7993 17.9506 38.6325 17.9506C39.2728 17.9566 39.9114 17.886 40.5344 17.7401C41.1446 17.5873 41.738 17.3758 42.3063 17.1085V19.3641C41.7733 19.6248 41.2089 19.8175 40.6267 19.9374C39.9264 20.0693 39.2142 20.1304 38.5011 20.1197C37.417 20.1197 36.4568 19.9221 35.6205 19.5267C34.7927 19.1384 34.1065 18.5068 33.6557 17.7185C33.1815 16.9083 32.944 15.8876 32.9434 14.6564C32.9434 13.4032 33.158 12.3619 33.5872 11.5324C33.9772 10.7389 34.6043 10.0828 35.3837 9.65269C36.149 9.23974 37.0413 9.03296 38.0609 9.03233ZM38.0799 11.1095C37.8173 11.1012 37.5556 11.1453 37.3107 11.2389C37.0656 11.3325 36.8421 11.4739 36.6533 11.6546C36.2729 12.0179 36.0551 12.5888 35.9999 13.367H40.1436C40.1445 12.9694 40.0639 12.5759 39.9068 12.21C39.7643 11.8827 39.5286 11.6032 39.2287 11.4055C38.9276 11.2081 38.5446 11.1095 38.0799 11.1095Z" fill="#3F237B"/>
<path d="M48.367 5.04245V8.50674C48.367 8.90837 48.3556 9.30686 48.3328 9.70222C48.3099 10.0979 48.2833 10.4043 48.251 10.6204H48.367C48.6654 10.1644 49.0623 9.77918 49.5292 9.49266C50.0192 9.18374 50.6548 9.029 51.436 9.02838C52.6495 9.02838 53.6322 9.49829 54.3841 10.4381C55.1361 11.378 55.5136 12.7527 55.5168 14.5622C55.5168 15.7803 55.3428 16.8025 54.9948 17.6289C54.6467 18.4553 54.1607 19.0782 53.5368 19.4973C52.8925 19.9209 52.1326 20.1395 51.359 20.1243C50.5645 20.1243 49.9384 19.9839 49.4806 19.7032C49.0575 19.4525 48.6807 19.1321 48.367 18.7558H48.1625L47.6689 19.9325H45.4141V5.04245H48.367ZM50.4868 11.3677C49.9704 11.3677 49.5606 11.4719 49.2571 11.6835C48.9354 11.9176 48.7014 12.2503 48.5915 12.6299C48.4378 13.1487 48.3613 13.6869 48.3642 14.2276V14.5434C48.3642 15.5828 48.5192 16.3786 48.8292 16.9306C49.1392 17.4826 49.7038 17.7584 50.5229 17.7577C51.1297 17.7577 51.6122 17.4804 51.9705 16.9259C52.3286 16.3714 52.5078 15.5707 52.5078 14.5236C52.5078 13.4773 52.3271 12.6897 51.9657 12.1609C51.6043 11.632 51.1113 11.3677 50.4868 11.3677Z" fill="#3F237B"/>
<path d="M59.5409 5.04243C59.9401 5.03179 60.3338 5.13665 60.6736 5.34413C60.9905 5.54525 61.149 5.92119 61.149 6.47195C61.149 7.0227 60.9905 7.39864 60.6736 7.59976C60.3308 7.80333 59.9384 7.91091 59.5385 7.91091C59.1386 7.91091 58.7462 7.80333 58.4034 7.59976C58.0896 7.393 57.933 7.01706 57.9336 6.47195C57.9343 5.92683 58.0908 5.5509 58.4034 5.34413C58.7444 5.13534 59.1399 5.03041 59.5409 5.04243ZM61.0121 9.23322V19.9306H58.0592V9.23322H61.0121Z" fill="#3F237B"/>
<path d="M67.377 24.6386C65.8655 24.6386 64.7116 24.3789 63.9152 23.8595C63.1189 23.34 62.7204 22.6111 62.7198 21.6724C62.7015 21.0755 62.9204 20.4954 63.3294 20.0559C63.7365 19.6217 64.3334 19.3121 65.1202 19.1273C64.8048 18.9906 64.5312 18.7745 64.3271 18.5005C64.1037 18.224 63.9837 17.8799 63.9871 17.5262C63.9905 17.1725 64.1174 16.8308 64.3461 16.5587C64.6458 16.2393 64.9955 15.9696 65.3817 15.7598C64.8181 15.5209 64.3455 15.112 64.0313 14.5916C63.6984 14.0559 63.5322 13.4246 63.5329 12.6978C63.5329 11.9196 63.7053 11.2576 64.0503 10.7119C64.4125 10.1525 64.9401 9.71671 65.5615 9.46376C66.2221 9.17617 67.0273 9.03233 67.9771 9.03233C68.1768 9.03233 68.4092 9.04519 68.6742 9.0709C68.9392 9.09662 69.1828 9.12537 69.4046 9.15733C69.6281 9.1893 69.7774 9.21465 69.8553 9.23349H73.631V10.7166L71.9372 11.1471C72.0904 11.3792 72.2077 11.6326 72.2852 11.8989C72.3642 12.1759 72.4033 12.4625 72.4013 12.7505C72.4013 13.8976 71.9964 14.7923 71.1868 15.4347C70.3773 16.0768 69.2524 16.3973 67.8125 16.3961C67.4702 16.376 67.1475 16.3504 66.8444 16.319C66.7095 16.4186 66.5944 16.5419 66.5049 16.6828C66.4296 16.8037 66.3894 16.9429 66.3889 17.085C66.3884 17.153 66.4044 17.2201 66.4354 17.2808C66.4666 17.3414 66.5119 17.3939 66.5676 17.4337C66.7301 17.5438 66.9158 17.6157 67.1107 17.6441C67.4091 17.6971 67.712 17.7213 68.0152 17.7166H69.8553C71.0429 17.7166 71.9483 17.9672 72.5715 18.4685C73.1947 18.9697 73.5061 19.7097 73.5054 20.6884C73.5054 21.9415 72.9777 22.9112 71.922 23.5972C70.8663 24.2833 69.3514 24.6304 67.377 24.6386ZM67.5026 22.7345C68.1136 22.745 68.7235 22.6793 69.318 22.5389C69.8252 22.4074 70.2142 22.2222 70.485 21.9835C70.6123 21.8792 70.7148 21.7483 70.785 21.6004C70.8552 21.4523 70.8915 21.2907 70.8911 21.1273C70.8972 21.0108 70.8794 20.8945 70.8387 20.7851C70.7981 20.6757 70.7353 20.5756 70.6542 20.491C70.4951 20.3337 70.2561 20.2238 69.9371 20.1612C69.5332 20.0908 69.1233 20.0594 68.7132 20.0672H67.182C66.8495 20.0619 66.5191 20.1204 66.2091 20.2391C65.9429 20.3389 65.7077 20.5053 65.5262 20.7222C65.3591 20.9264 65.27 21.1822 65.2743 21.445C65.2743 21.8465 65.4695 22.1623 65.8601 22.3923C66.2507 22.6222 66.7981 22.7364 67.5026 22.7345ZM67.978 14.6207C68.5322 14.6207 68.9389 14.4515 69.1982 14.1132C69.4576 13.7748 69.5865 13.3155 69.5853 12.7354C69.5853 12.0912 69.4512 11.6081 69.183 11.2862C68.9149 10.964 68.5132 10.803 67.978 10.803C67.4359 10.803 67.0292 10.964 66.7579 11.2862C66.4866 11.6081 66.3509 12.0912 66.3509 12.7354C66.3509 13.3162 66.4849 13.7755 66.7531 14.1132C67.0213 14.4509 67.4302 14.6201 67.978 14.6207Z" fill="#3F237B"/>
<path d="M74.7344 14.5628C74.7344 13.9632 74.9008 13.5422 75.2337 13.2997C75.5842 13.0514 76.0075 12.9236 76.4386 12.9359C76.8636 12.9254 77.2802 13.0533 77.6246 13.2997C77.9574 13.5422 78.1239 13.9632 78.1239 14.5628C78.1239 15.1367 77.9574 15.5516 77.6246 15.8072C77.2849 16.0645 76.8665 16.1995 76.4386 16.1897C76.0047 16.2015 75.5795 16.0665 75.2337 15.8072C74.9008 15.5516 74.7344 15.1367 74.7344 14.5628Z" fill="#3F237B"/>
<path d="M85.2296 20.1223C84.1587 20.1223 83.2454 19.9293 82.4896 19.5434C81.729 19.1516 81.1226 18.5202 80.7664 17.7492C80.3726 16.939 80.1758 15.9024 80.1758 14.6392C80.1758 13.3322 80.4002 12.267 80.8491 11.4437C81.2591 10.6546 81.9141 10.016 82.7179 9.62131C83.5149 9.2322 84.4392 9.03738 85.491 9.03676C86.1451 9.02595 86.7979 9.09854 87.4331 9.25292C87.9244 9.37676 88.4022 9.54801 88.8597 9.76417L87.9885 12.0199C87.5232 11.8318 87.0907 11.6802 86.6913 11.565C86.3017 11.4489 85.8971 11.3894 85.4901 11.3883C84.9734 11.3883 84.5442 11.5079 84.2024 11.7473C83.8607 11.9867 83.6071 12.3453 83.4416 12.8235C83.2742 13.3021 83.1903 13.9017 83.1896 14.6223C83.1896 15.3297 83.2799 15.9165 83.4606 16.3826C83.6413 16.8488 83.9029 17.1935 84.2452 17.4165C84.6173 17.6515 85.0525 17.7699 85.4939 17.7558C86.0495 17.7648 86.6026 17.6826 87.1307 17.5123C87.6225 17.3426 88.0908 17.1128 88.5249 16.8281V19.3253C88.0872 19.6002 87.6084 19.8051 87.1059 19.9325C86.4907 20.0712 85.8606 20.1351 85.2296 20.1223Z" fill="#3F237B"/>
<path d="M100.965 14.5634C100.979 15.3689 100.856 16.1709 100.602 16.9365C100.383 17.5875 100.023 18.1835 99.5463 18.6828C99.0808 19.1605 98.5112 19.5283 97.8816 19.7588C97.1784 20.0105 96.4358 20.1337 95.6886 20.1226C94.9738 20.1303 94.2644 20.0069 93.5962 19.7588C92.971 19.5237 92.406 19.1564 91.9405 18.6828C91.457 18.1834 91.0875 17.5881 90.8561 16.9365C90.5897 16.1736 90.4606 15.3704 90.4758 14.5634C90.4758 13.3773 90.6884 12.3726 91.1144 11.5493C91.5126 10.7552 92.1477 10.1008 92.9342 9.6743C93.7226 9.24635 94.6617 9.03233 95.7523 9.03233C96.7667 9.03233 97.6654 9.24635 98.4493 9.6743C99.2386 10.1067 99.8817 10.7587 100.298 11.5493C100.743 12.3726 100.965 13.3773 100.965 14.5634ZM93.4814 14.5634C93.4661 15.1615 93.545 15.7583 93.7128 16.3331C93.8679 16.8118 94.1101 17.1724 94.4393 17.4149C94.7684 17.6574 95.1971 17.7786 95.7272 17.7786C96.2501 17.7786 96.6744 17.6574 97.0008 17.4149C97.3273 17.1724 97.5659 16.8118 97.7166 16.3331C97.8816 15.7577 97.9587 15.1612 97.9444 14.5634C97.9444 13.8553 97.8681 13.267 97.7166 12.7983C97.5659 12.3297 97.3246 11.9772 96.9963 11.741C96.6672 11.5054 96.2376 11.3872 95.7084 11.3867C94.9263 11.3867 94.3603 11.6514 94.0087 12.1809C93.6572 12.7103 93.4814 13.5045 93.4814 14.5634Z" fill="#3F237B"/>
</g>
</svg>
